<svg width="40" height="20" viewBox="0 0 40 20" fill="none" xmlns="http://www.w3.org/2000/svg">
<path d="M15.0613 13.056C16.0613 13.056 16.8293 12.592 17.3173 11.984L16.4933 11.272C16.1493 11.696 15.6533 11.992 15.0613 11.992C14.0453 11.992 13.3413 11.232 13.3413 10.176C13.3413 9.04 14.0773 8.32 15.0453 8.32C15.6293 8.32 16.1093 8.592 16.4773 9.04L17.3093 8.344C16.7013 7.6 15.8613 7.248 15.0453 7.248C13.2053 7.248 12.1653 8.552 12.1653 10.176C12.1653 12.048 13.4773 13.056 15.0613 13.056ZM18.1707 13H19.2827V11.056H20.1627C21.4107 11.056 22.2507 10.456 22.2507 9.208C22.2507 8.12 21.6507 7.32 20.2747 7.32H18.1707V13ZM19.2827 10.064V8.32H20.0987C20.7467 8.32 21.0827 8.664 21.0827 9.192C21.0827 9.712 20.7467 10.064 20.0427 10.064H19.2827ZM25.3713 13.072C26.8273 13.072 27.6833 12.128 27.6833 10.648V7.32H26.5553V10.576C26.5553 11.48 26.0593 12.016 25.3713 12.016C24.6193 12.016 24.2033 11.392 24.2033 10.576V7.32H23.0753V10.648C23.0753 12.2 24.0033 13.072 25.3713 13.072Z" fill="#8F00FF"/>
<rect x="0.5" y="0.5" width="39" height="19" stroke="#8F00FF"/>
</svg>
