<svg width="40" height="20" viewBox="0 0 40 20" fill="none" xmlns="http://www.w3.org/2000/svg">
<path d="M14.948 13.056C15.82 13.056 16.668 12.768 17.188 12.352V9.904H14.82V10.872H16.092V11.704C15.732 11.928 15.356 12.032 14.948 12.032C13.884 12.032 13.228 11.216 13.228 10.168C13.228 9.008 13.964 8.312 14.9 8.312C15.524 8.312 16.012 8.552 16.364 8.904L17.156 8.216C16.572 7.568 15.708 7.248 14.9 7.248C13.124 7.248 12.052 8.504 12.052 10.168C12.052 11.992 13.308 13.056 14.948 13.056ZM18.284 13H19.396V11.056H20.276C21.524 11.056 22.364 10.456 22.364 9.208C22.364 8.12 21.764 7.32 20.388 7.32H18.284V13ZM19.396 10.064V8.32H20.212C20.86 8.32 21.196 8.664 21.196 9.192C21.196 9.712 20.86 10.064 20.156 10.064H19.396ZM25.4845 13.072C26.9405 13.072 27.7965 12.128 27.7965 10.648V7.32H26.6685V10.576C26.6685 11.48 26.1725 12.016 25.4845 12.016C24.7325 12.016 24.3165 11.392 24.3165 10.576V7.32H23.1885V10.648C23.1885 12.2 24.1165 13.072 25.4845 13.072Z" fill="#8F00FF"/>
<rect x="0.5" y="0.5" width="39" height="19" stroke="#8F00FF"/>
</svg>
