<svg width="40" height="20" viewBox="0 0 40 20" fill="none" xmlns="http://www.w3.org/2000/svg">
<path d="M11.7137 13H12.8257V11.056H13.4737L14.7457 13H16.0817L14.6577 10.92C15.4417 10.664 15.8417 10.072 15.8417 9.208C15.8417 8.12 15.2337 7.32 13.8657 7.32H11.7137V13ZM12.8257 10.064V8.32H13.6897C14.3377 8.32 14.6817 8.664 14.6817 9.192C14.6817 9.712 14.3297 10.064 13.6417 10.064H12.8257ZM16.4678 13H17.6438L18.0278 11.864H20.2038L20.5958 13H21.7718L19.6598 7.32H18.5718L16.4678 13ZM18.3478 10.904L19.1078 8.68H19.1238L19.8838 10.904H18.3478ZM22.5185 13H23.6385V9.48H23.6545L25.0305 11.928H25.7585L27.1425 9.488H27.1585V13H28.2785V7.32H27.1505L25.4065 10.552H25.3905L23.6465 7.32H22.5185V13Z" fill="#8F00FF"/>
<rect x="0.5" y="0.5" width="39" height="19" stroke="#8F00FF"/>
</svg>
