<?xml version="1.0" encoding="UTF-8"?>
<svg id="Layer_2" data-name="Layer 2" xmlns="http://www.w3.org/2000/svg" width="40" height="20" viewBox="0 0 40 20">
  <defs>
    <style>
      .cls-1 {
        fill: #fff;
      }

      .cls-2 {
        fill: none;
        stroke: #fff;
        stroke-width: .75px;
      }
    </style>
  </defs>
  <g id="Layer_1-2" data-name="Layer 1">
    <path class="cls-1" d="M15.06,13.06c1,0,1.77-.46,2.26-1.07l-.82-.71c-.34,.42-.84,.72-1.43,.72-1.02,0-1.72-.76-1.72-1.82,0-1.14,.74-1.86,1.7-1.86,.58,0,1.06,.27,1.43,.72l.83-.7c-.61-.74-1.45-1.1-2.26-1.1-1.84,0-2.88,1.3-2.88,2.93,0,1.87,1.31,2.88,2.9,2.88Zm3.11-.06h1.11v-1.94h.88c1.25,0,2.09-.6,2.09-1.85,0-1.09-.6-1.89-1.98-1.89h-2.1v5.68Zm1.11-2.94v-1.74h.82c.65,0,.98,.34,.98,.87s-.34,.87-1.04,.87h-.76Zm6.09,3.01c1.46,0,2.31-.94,2.31-2.42v-3.33h-1.13v3.26c0,.9-.5,1.44-1.18,1.44-.75,0-1.17-.62-1.17-1.44v-3.26h-1.13v3.33c0,1.55,.93,2.42,2.3,2.42Z"/>
    <rect class="cls-2" x=".38" y=".38" width="39.25" height="19.25"/>
  </g>
</svg>
